<svg viewBox="-16 0 512 512" xmlns="http://www.w3.org/2000/svg"><path d="m252.027344 192.800781c-34.851563 0-63.203125 28.351563-63.203125 63.199219s28.351562 63.199219 63.203125 63.199219c34.847656 0 63.199218-28.351563 63.199218-63.199219s-28.351562-63.199219-63.199218-63.199219zm0 96.398438c-18.308594 0-33.203125-14.894531-33.203125-33.199219s14.894531-33.199219 33.203125-33.199219c18.304687 0 33.199218 14.894531 33.199218 33.199219s-14.894531 33.199219-33.199218 33.199219zm0 0"/><path d="m431.128906 256c5.097656-5.621094 9.886719-11.257812 14.320313-16.890625 34.378906-43.691406 44.421875-83.152344 28.28125-111.109375-16.136719-27.957031-55.332031-38.988281-110.363281-31.058594-34.144532 4.921875-72.390626 16.71875-111.339844 34.109375-20.515625-9.160156-40.835938-16.765625-60.464844-22.636719 1.953125-5.957031 4.035156-11.707031 6.238281-17.222656 15.328125-38.316406 35.597657-61.191406 54.226563-61.191406 1.375 0 2.761718.128906 4.15625.371094-1.988282 5.210937-3.089844 10.859375-3.089844 16.761718 0 25.988282 21.144531 47.132813 47.132812 47.132813 25.988282 0 47.132813-21.144531 47.132813-47.132813 0-25.988281-21.144531-47.132812-47.132813-47.132812-8.355468 0-16.199218 2.195312-23.011718 6.019531-8.148438-3.992187-16.582032-6.019531-25.1875-6.019531-32.28125 0-61.429688 28.429688-82.082032 80.050781-2.660156 6.65625-5.148437 13.621094-7.46875 20.847657-7.417968-1.605469-14.691406-2.933594-21.785156-3.957032-55.027344-7.925781-94.222656 3.101563-110.363281 31.058594s-6.097656 67.417969 28.28125 111.109375c21.332031 27.109375 50.675781 54.332031 85.207031 79.367187 2.324219 22.34375 5.898438 43.746094 10.628906 63.679688-6.136718 1.289062-12.15625 2.359375-18.035156 3.207031-40.84375 5.886719-70.789062-.230469-80.097656-16.359375-.683594-1.183594-1.261719-2.4375-1.746094-3.753906 22.46875-3.574219 39.699219-23.082031 39.699219-46.542969 0-25.988281-21.144531-47.132812-47.132813-47.132812-25.988281 0-47.132812 21.144531-47.132812 47.132812 0 17.152344 9.214844 32.191407 22.945312 40.4375.617188 9.066407 3.078126 17.394531 7.382813 24.855469 3.652344 6.328125 24.132813 43.480469 110.363281 31.058594 7.09375-1.023438 14.371094-2.351563 21.785156-3.957032 2.320313 7.226563 4.808594 14.191407 7.46875 20.847657 20.652344 51.621093 49.800782 80.050781 82.082032 80.050781s61.429687-28.429688 82.078125-80.050781c12.8125-32.03125 21.714843-71.050781 26.132812-113.472657 18.191407-13.1875 34.941407-26.980468 49.835938-41.046874 4.1875 4.671874 8.125 9.347656 11.796875 14.011718 25.519531 32.433594 35.195312 61.425782 25.878906 77.5625-.707031 1.222656-1.519531 2.382813-2.4375 3.480469-8.648438-10.640625-21.832031-17.453125-36.578125-17.453125-25.992187 0-47.132813 21.144531-47.132813 47.132812 0 25.988282 21.140626 47.132813 47.132813 47.132813 25.757813 0 46.746094-20.773437 47.113281-46.445313 7.574219-5.074218 13.570313-11.378906 17.882813-18.851562 16.144531-27.957031 6.097656-67.414062-28.28125-111.109375-4.433594-5.632813-9.222657-11.269531-14.320313-16.890625zm-113.769531-208.867188c0 9.445313-7.683594 17.132813-17.132813 17.132813-9.445312 0-17.132812-7.6875-17.132812-17.132813 0-9.445312 7.683594-17.132812 17.132812-17.132812 9.445313 0 17.132813 7.6875 17.132813 17.132812zm-270.226563 254.441407c9.449219 0 17.132813 7.6875 17.132813 17.132812 0 9.449219-7.683594 17.132813-17.132813 17.132813-9.445312 0-17.132812-7.683594-17.132812-17.132813 0-9.445312 7.6875-17.132812 17.132812-17.132812zm320.515626-174.9375c40.84375-5.886719 70.789062.230469 80.101562 16.363281 9.316406 16.132812-.359375 45.125-25.878906 77.558594-3.671875 4.664062-7.609375 9.34375-11.796875 14.011718-28.351563-26.769531-63.402344-52.5625-102.347657-75.042968-6.589843-3.804688-13.207031-7.460938-19.835937-10.972656 28.039063-10.871094 55.125-18.371094 79.757813-21.917969zm-285.460938 93.921875c-25.519531-32.429688-35.191406-61.425782-25.875-77.558594 9.3125-16.132812 39.253906-22.25 80.101562-16.363281 5.878907.84375 11.898438 1.917969 18.035157 3.207031-9.011719 37.9375-13.820313 81.1875-13.820313 126.15625 0 7.609375.140625 15.167969.414063 22.664062-23.433594-18.84375-43.464844-38.550781-58.855469-58.105468zm224.0625 200.25c-15.324219 38.316406-35.597656 61.191406-54.222656 61.191406-18.628906 0-38.898438-22.875-54.226563-61.191406-2.207031-5.515625-4.285156-11.265625-6.238281-17.222656 37.359375-11.167969 77.21875-28.628907 116.164062-51.113282 6.589844-3.804687 13.0625-7.707031 19.417969-11.691406-4.601562 29.714844-11.652343 56.917969-20.894531 80.027344zm42.175781-179.808594c-8.285156 0-15 6.714844-15 15 0 15.625-.605469 31.003906-1.785156 45.96875-12.367187 8.5-25.382813 16.710938-38.914063 24.523438-36.832031 21.265624-74.320312 37.738281-109.238281 48.214843-2.5625-10.851562-4.765625-22.191406-6.582031-33.925781 6.355469 3.984375 12.828125 7.886719 19.421875 11.691406 7.171875 4.140625 16.347656 1.683594 20.488281-5.492187 4.144532-7.171875 1.683594-16.347657-5.492187-20.488281-13.527344-7.8125-26.546875-16.023438-38.914063-24.527344-1.179687-14.960938-1.785156-30.339844-1.785156-45.964844 0-42.527344 4.480469-83.230469 12.863281-118.707031 10.683594 3.203125 21.605469 6.96875 32.675781 11.261719-6.628906 3.511718-13.246093 7.167968-19.839843 10.972656-7.171875 4.144531-9.628907 13.316406-5.488281 20.492187 4.140624 7.171875 13.3125 9.632813 20.488281 5.488281 13.535156-7.8125 27.152343-14.976562 40.703125-21.4375 13.546875 6.460938 27.167968 13.625 40.699218 21.4375 36.835938 21.265626 69.84375 45.492188 96.378907 70.492188-8.121094 7.648438-16.839844 15.226562-26.09375 22.667969.269531-7.496094.414062-15.054688.414062-22.667969 0-8.285156-6.714843-15-15-15zm60.308594 178.296875c-9.449219 0-17.132813-7.683594-17.132813-17.132813 0-9.445312 7.683594-17.132812 17.132813-17.132812 9.445313 0 17.132813 7.6875 17.132813 17.132812 0 9.449219-7.6875 17.132813-17.132813 17.132813zm0 0"/></svg>
